<svg width="147" height="140" viewBox="0 0 147 140" fill="none" xmlns="http://www.w3.org/2000/svg">
<path d="M24.3798 107.843C25.709 99.4132 33.3336 59.8544 61.9111 30.6237C64.5695 27.9026 67.2883 26.016 69.9708 25.0243C74.0429 23.5247 77.6559 23.6577 81.003 25.4476C82.6947 26.3546 84.326 27.8421 85.8485 29.8739C92.724 39.0289 110.148 66.893 123.319 127.628C124.721 134.098 131.101 138.186 137.566 136.795C144.031 135.392 148.127 129.007 146.725 122.537C132.551 57.1817 112.819 25.8829 105.001 15.4702C101.352 10.6085 97.0741 6.85941 92.2648 4.29553C82.8035 -0.759681 72.2183 -1.36437 61.6694 2.54193C55.6277 4.77928 49.9484 8.57673 44.7888 13.8617C7.7529 51.7274 0.925731 102.134 0.394058 106.476C-0.0409478 109.475 -1.49096 121.992 6.29081 131.002C10.7496 136.154 16.8397 139.25 23.2439 139.915C23.9689 139.988 24.694 140 25.419 140C29.6603 140 33.9862 139.057 38.312 137.17C47.2659 133.264 65.0045 122.96 83.2264 97.7201C87.1052 92.3504 85.8968 84.8644 80.5439 80.9823C75.1788 77.1002 67.6991 78.3096 63.8203 83.6671C51.1326 101.227 39.2667 109.62 32.4516 113.357H32.4636C31.6782 113.781 30.7961 114.023 29.8415 114.023C26.7965 114.023 24.3194 111.543 24.3194 108.496C24.3194 108.266 24.3315 108.048 24.3556 107.818L24.3798 107.843Z" fill="url(#paint0_linear_2761_1376)"/>
<defs>
<linearGradient id="paint0_linear_2761_1376" x1="60.7634" y1="152.714" x2="107.606" y2="8.66925" gradientUnits="userSpaceOnUse">
<stop stop-color="#2EBBFF"/>
<stop offset="0.5112" stop-color="#FE17FF"/>
<stop offset="1" stop-color="#6232EA"/>
</linearGradient>
</defs>
</svg>
